<svg width="1440" height="4560" viewBox="0 0 1440 4560" fill="none" xmlns="http://www.w3.org/2000/svg">
<g clip-path="url(#clip0_11691_345)">
<line x1="-106.18" y1="80.3633" x2="742.097" y2="80.3633" stroke="#1D7066" stroke-opacity="0.07"/>
<line x1="656.535" y1="80.3633" x2="1504.81" y2="80.3633" stroke="#1D7066" stroke-opacity="0.07"/>
<line x1="634.621" y1="0.3125" x2="634.621" y2="842.533" stroke="#8BA19E" stroke-opacity="0.05"/>
<line x1="1397.33" y1="0.3125" x2="1397.33" y2="842.533" stroke="#8BA19E" stroke-opacity="0.05"/>
<line x1="-106.18" y1="331.486" x2="742.097" y2="331.486" stroke="#1D7066" stroke-opacity="0.07"/>
<line x1="656.535" y1="331.486" x2="1504.81" y2="331.486" stroke="#1D7066" stroke-opacity="0.07"/>
<line x1="381.691" y1="0.3125" x2="381.691" y2="842.533" stroke="#8BA19E" stroke-opacity="0.05"/>
<line x1="1144.41" y1="0.3125" x2="1144.41" y2="842.533" stroke="#8BA19E" stroke-opacity="0.05"/>
<line x1="-106.18" y1="582.609" x2="742.097" y2="582.609" stroke="#1D7066" stroke-opacity="0.07"/>
<line x1="656.535" y1="582.609" x2="1504.81" y2="582.609" stroke="#1D7066" stroke-opacity="0.07"/>
<line x1="128.762" y1="0.3125" x2="128.762" y2="842.533" stroke="#8BA19E" stroke-opacity="0.05"/>
<line x1="891.477" y1="0.3125" x2="891.477" y2="842.533" stroke="#8BA19E" stroke-opacity="0.05"/>
<line x1="-106.18" y1="205.924" x2="742.097" y2="205.924" stroke="#1D7066" stroke-opacity="0.07"/>
<line x1="656.535" y1="205.924" x2="1504.81" y2="205.924" stroke="#1D7066" stroke-opacity="0.07"/>
<line x1="508.156" y1="0.3125" x2="508.156" y2="842.533" stroke="#8BA19E" stroke-opacity="0.05"/>
<line x1="1270.87" y1="0.3125" x2="1270.87" y2="842.533" stroke="#8BA19E" stroke-opacity="0.05"/>
<line x1="-106.18" y1="457.049" x2="742.097" y2="457.049" stroke="#1D7066" stroke-opacity="0.07"/>
<line x1="656.535" y1="457.049" x2="1504.81" y2="457.049" stroke="#1D7066" stroke-opacity="0.07"/>
<line x1="255.227" y1="0.3125" x2="255.227" y2="842.533" stroke="#8BA19E" stroke-opacity="0.05"/>
<line x1="1017.94" y1="0.3125" x2="1017.94" y2="842.533" stroke="#8BA19E" stroke-opacity="0.05"/>
<line x1="-106.18" y1="708.17" x2="742.097" y2="708.17" stroke="#1D7066" stroke-opacity="0.07"/>
<line x1="656.535" y1="708.17" x2="1504.81" y2="708.17" stroke="#1D7066" stroke-opacity="0.07"/>
<line x1="2.29688" y1="0.3125" x2="2.29684" y2="842.533" stroke="#8BA19E" stroke-opacity="0.05"/>
<line x1="765.012" y1="0.3125" x2="765.012" y2="842.533" stroke="#8BA19E" stroke-opacity="0.05"/>
<line x1="-106.18" y1="2360.08" x2="742.097" y2="2360.08" stroke="#1D7066" stroke-opacity="0.07"/>
<line x1="656.535" y1="2360.08" x2="1504.81" y2="2360.08" stroke="#1D7066" stroke-opacity="0.07"/>
<line x1="634.621" y1="2280.03" x2="634.621" y2="3122.25" stroke="#8BA19E" stroke-opacity="0.05"/>
<line x1="1397.33" y1="2280.03" x2="1397.33" y2="3122.25" stroke="#8BA19E" stroke-opacity="0.05"/>
<line x1="-106.18" y1="2611.21" x2="742.097" y2="2611.21" stroke="#1D7066" stroke-opacity="0.07"/>
<line x1="656.535" y1="2611.21" x2="1504.81" y2="2611.21" stroke="#1D7066" stroke-opacity="0.07"/>
<line x1="381.691" y1="2280.03" x2="381.691" y2="3122.25" stroke="#8BA19E" stroke-opacity="0.05"/>
<line x1="1144.41" y1="2280.03" x2="1144.41" y2="3122.25" stroke="#8BA19E" stroke-opacity="0.05"/>
<line x1="-106.18" y1="2862.33" x2="742.097" y2="2862.33" stroke="#1D7066" stroke-opacity="0.07"/>
<line x1="656.535" y1="2862.33" x2="1504.81" y2="2862.33" stroke="#1D7066" stroke-opacity="0.07"/>
<line x1="128.762" y1="2280.03" x2="128.762" y2="3122.25" stroke="#8BA19E" stroke-opacity="0.05"/>
<line x1="891.477" y1="2280.03" x2="891.477" y2="3122.25" stroke="#8BA19E" stroke-opacity="0.05"/>
<line x1="-106.18" y1="2485.64" x2="742.097" y2="2485.64" stroke="#1D7066" stroke-opacity="0.07"/>
<line x1="656.535" y1="2485.64" x2="1504.81" y2="2485.64" stroke="#1D7066" stroke-opacity="0.07"/>
<line x1="508.156" y1="2280.03" x2="508.156" y2="3122.25" stroke="#8BA19E" stroke-opacity="0.05"/>
<line x1="1270.87" y1="2280.03" x2="1270.87" y2="3122.25" stroke="#8BA19E" stroke-opacity="0.05"/>
<line x1="-106.18" y1="2736.77" x2="742.097" y2="2736.77" stroke="#1D7066" stroke-opacity="0.07"/>
<line x1="656.535" y1="2736.77" x2="1504.81" y2="2736.77" stroke="#1D7066" stroke-opacity="0.07"/>
<line x1="255.227" y1="2280.03" x2="255.227" y2="3122.25" stroke="#8BA19E" stroke-opacity="0.05"/>
<line x1="1017.94" y1="2280.03" x2="1017.94" y2="3122.25" stroke="#8BA19E" stroke-opacity="0.05"/>
<line x1="-106.18" y1="2987.89" x2="742.097" y2="2987.89" stroke="#1D7066" stroke-opacity="0.07"/>
<line x1="656.535" y1="2987.89" x2="1504.81" y2="2987.89" stroke="#1D7066" stroke-opacity="0.07"/>
<line x1="2.29688" y1="2280.03" x2="2.29684" y2="3122.25" stroke="#8BA19E" stroke-opacity="0.05"/>
<line x1="765.012" y1="2280.03" x2="765.012" y2="3122.25" stroke="#8BA19E" stroke-opacity="0.05"/>
<line x1="-106.18" y1="788.721" x2="742.097" y2="788.721" stroke="#1D7066" stroke-opacity="0.07"/>
<line x1="656.535" y1="788.721" x2="1504.81" y2="788.721" stroke="#1D7066" stroke-opacity="0.07"/>
<line x1="634.621" y1="708.67" x2="634.621" y2="1550.89" stroke="#8BA19E" stroke-opacity="0.05"/>
<line x1="1397.33" y1="708.67" x2="1397.33" y2="1550.89" stroke="#8BA19E" stroke-opacity="0.05"/>
<line x1="-106.18" y1="1039.84" x2="742.097" y2="1039.84" stroke="#1D7066" stroke-opacity="0.07"/>
<line x1="656.535" y1="1039.84" x2="1504.81" y2="1039.84" stroke="#1D7066" stroke-opacity="0.07"/>
<line x1="381.691" y1="708.67" x2="381.691" y2="1550.89" stroke="#8BA19E" stroke-opacity="0.05"/>
<line x1="1144.41" y1="708.67" x2="1144.41" y2="1550.89" stroke="#8BA19E" stroke-opacity="0.05"/>
<line x1="-106.18" y1="1290.97" x2="742.097" y2="1290.97" stroke="#1D7066" stroke-opacity="0.07"/>
<line x1="656.535" y1="1290.97" x2="1504.81" y2="1290.97" stroke="#1D7066" stroke-opacity="0.07"/>
<line x1="128.762" y1="708.67" x2="128.762" y2="1550.89" stroke="#8BA19E" stroke-opacity="0.05"/>
<line x1="891.477" y1="708.67" x2="891.477" y2="1550.89" stroke="#8BA19E" stroke-opacity="0.05"/>
<line x1="-106.18" y1="914.281" x2="742.097" y2="914.281" stroke="#1D7066" stroke-opacity="0.07"/>
<line x1="656.535" y1="914.281" x2="1504.81" y2="914.281" stroke="#1D7066" stroke-opacity="0.07"/>
<line x1="508.156" y1="708.67" x2="508.156" y2="1550.89" stroke="#8BA19E" stroke-opacity="0.05"/>
<line x1="1270.87" y1="708.67" x2="1270.87" y2="1550.89" stroke="#8BA19E" stroke-opacity="0.05"/>
<line x1="-106.18" y1="1165.41" x2="742.097" y2="1165.41" stroke="#1D7066" stroke-opacity="0.07"/>
<line x1="656.535" y1="1165.41" x2="1504.81" y2="1165.41" stroke="#1D7066" stroke-opacity="0.07"/>
<line x1="255.227" y1="708.67" x2="255.227" y2="1550.89" stroke="#8BA19E" stroke-opacity="0.05"/>
<line x1="1017.94" y1="708.67" x2="1017.94" y2="1550.89" stroke="#8BA19E" stroke-opacity="0.05"/>
<line x1="-106.18" y1="1416.53" x2="742.097" y2="1416.53" stroke="#1D7066" stroke-opacity="0.07"/>
<line x1="656.535" y1="1416.53" x2="1504.81" y2="1416.53" stroke="#1D7066" stroke-opacity="0.07"/>
<line x1="2.29688" y1="708.67" x2="2.29684" y2="1550.89" stroke="#8BA19E" stroke-opacity="0.05"/>
<line x1="765.012" y1="708.67" x2="765.012" y2="1550.89" stroke="#8BA19E" stroke-opacity="0.05"/>
<line x1="-106.18" y1="3068.44" x2="742.097" y2="3068.44" stroke="#1D7066" stroke-opacity="0.07"/>
<line x1="656.535" y1="3068.44" x2="1504.81" y2="3068.44" stroke="#1D7066" stroke-opacity="0.07"/>
<line x1="634.621" y1="2988.39" x2="634.621" y2="3830.61" stroke="#8BA19E" stroke-opacity="0.05"/>
<line x1="1397.33" y1="2988.39" x2="1397.33" y2="3830.61" stroke="#8BA19E" stroke-opacity="0.05"/>
<line x1="-106.18" y1="3319.56" x2="742.097" y2="3319.56" stroke="#1D7066" stroke-opacity="0.07"/>
<line x1="656.535" y1="3319.56" x2="1504.81" y2="3319.56" stroke="#1D7066" stroke-opacity="0.07"/>
<line x1="381.691" y1="2988.39" x2="381.691" y2="3830.61" stroke="#8BA19E" stroke-opacity="0.05"/>
<line x1="1144.41" y1="2988.39" x2="1144.41" y2="3830.61" stroke="#8BA19E" stroke-opacity="0.05"/>
<line x1="-106.18" y1="3570.69" x2="742.097" y2="3570.69" stroke="#1D7066" stroke-opacity="0.07"/>
<line x1="656.535" y1="3570.69" x2="1504.81" y2="3570.69" stroke="#1D7066" stroke-opacity="0.07"/>
<line x1="128.762" y1="2988.39" x2="128.762" y2="3830.61" stroke="#8BA19E" stroke-opacity="0.05"/>
<line x1="891.477" y1="2988.39" x2="891.477" y2="3830.61" stroke="#8BA19E" stroke-opacity="0.05"/>
<line x1="-106.18" y1="3194" x2="742.097" y2="3194" stroke="#1D7066" stroke-opacity="0.07"/>
<line x1="656.535" y1="3194" x2="1504.81" y2="3194" stroke="#1D7066" stroke-opacity="0.07"/>
<line x1="508.156" y1="2988.39" x2="508.156" y2="3830.61" stroke="#8BA19E" stroke-opacity="0.05"/>
<line x1="1270.87" y1="2988.39" x2="1270.87" y2="3830.61" stroke="#8BA19E" stroke-opacity="0.05"/>
<line x1="-106.18" y1="3445.13" x2="742.097" y2="3445.13" stroke="#1D7066" stroke-opacity="0.07"/>
<line x1="656.535" y1="3445.13" x2="1504.81" y2="3445.13" stroke="#1D7066" stroke-opacity="0.07"/>
<line x1="255.227" y1="2988.39" x2="255.227" y2="3830.61" stroke="#8BA19E" stroke-opacity="0.05"/>
<line x1="1017.94" y1="2988.39" x2="1017.94" y2="3830.61" stroke="#8BA19E" stroke-opacity="0.05"/>
<line x1="-106.18" y1="3696.25" x2="742.097" y2="3696.25" stroke="#1D7066" stroke-opacity="0.07"/>
<line x1="656.535" y1="3696.25" x2="1504.81" y2="3696.25" stroke="#1D7066" stroke-opacity="0.07"/>
<line x1="2.29688" y1="2988.39" x2="2.29684" y2="3830.61" stroke="#8BA19E" stroke-opacity="0.05"/>
<line x1="765.012" y1="2988.39" x2="765.012" y2="3830.61" stroke="#8BA19E" stroke-opacity="0.05"/>
<line x1="-106.18" y1="1517.86" x2="742.097" y2="1517.86" stroke="#1D7066" stroke-opacity="0.07"/>
<line x1="656.535" y1="1517.86" x2="1504.81" y2="1517.86" stroke="#1D7066" stroke-opacity="0.07"/>
<line x1="634.621" y1="1437.81" x2="634.621" y2="2280.03" stroke="#8BA19E" stroke-opacity="0.05"/>
<line x1="1397.33" y1="1437.81" x2="1397.33" y2="2280.03" stroke="#8BA19E" stroke-opacity="0.05"/>
<line x1="-106.18" y1="1768.99" x2="742.097" y2="1768.99" stroke="#1D7066" stroke-opacity="0.07"/>
<line x1="656.535" y1="1768.99" x2="1504.81" y2="1768.99" stroke="#1D7066" stroke-opacity="0.07"/>
<line x1="381.691" y1="1437.81" x2="381.691" y2="2280.03" stroke="#8BA19E" stroke-opacity="0.05"/>
<line x1="1144.41" y1="1437.81" x2="1144.41" y2="2280.03" stroke="#8BA19E" stroke-opacity="0.05"/>
<line x1="-106.18" y1="2020.11" x2="742.097" y2="2020.11" stroke="#1D7066" stroke-opacity="0.07"/>
<line x1="656.535" y1="2020.11" x2="1504.81" y2="2020.11" stroke="#1D7066" stroke-opacity="0.07"/>
<line x1="128.762" y1="1437.81" x2="128.762" y2="2280.03" stroke="#8BA19E" stroke-opacity="0.05"/>
<line x1="891.477" y1="1437.81" x2="891.477" y2="2280.03" stroke="#8BA19E" stroke-opacity="0.05"/>
<line x1="-106.18" y1="1643.42" x2="742.097" y2="1643.42" stroke="#1D7066" stroke-opacity="0.07"/>
<line x1="656.535" y1="1643.42" x2="1504.81" y2="1643.42" stroke="#1D7066" stroke-opacity="0.07"/>
<line x1="508.156" y1="1437.81" x2="508.156" y2="2280.03" stroke="#8BA19E" stroke-opacity="0.05"/>
<line x1="1270.87" y1="1437.81" x2="1270.87" y2="2280.03" stroke="#8BA19E" stroke-opacity="0.05"/>
<line x1="-106.18" y1="1894.55" x2="742.097" y2="1894.55" stroke="#1D7066" stroke-opacity="0.07"/>
<line x1="656.535" y1="1894.55" x2="1504.81" y2="1894.55" stroke="#1D7066" stroke-opacity="0.07"/>
<line x1="255.227" y1="1437.81" x2="255.227" y2="2280.03" stroke="#8BA19E" stroke-opacity="0.05"/>
<line x1="1017.94" y1="1437.81" x2="1017.94" y2="2280.03" stroke="#8BA19E" stroke-opacity="0.05"/>
<line x1="-106.18" y1="2145.67" x2="742.097" y2="2145.67" stroke="#1D7066" stroke-opacity="0.07"/>
<line x1="656.535" y1="2145.67" x2="1504.81" y2="2145.67" stroke="#1D7066" stroke-opacity="0.07"/>
<line x1="2.29688" y1="1437.81" x2="2.29684" y2="2280.03" stroke="#8BA19E" stroke-opacity="0.05"/>
<line x1="765.012" y1="1437.81" x2="765.012" y2="2280.03" stroke="#8BA19E" stroke-opacity="0.05"/>
<line x1="-106.18" y1="3797.58" x2="742.097" y2="3797.58" stroke="#1D7066" stroke-opacity="0.07"/>
<line x1="656.535" y1="3797.58" x2="1504.81" y2="3797.58" stroke="#1D7066" stroke-opacity="0.07"/>
<line x1="634.621" y1="3717.53" x2="634.621" y2="4559.75" stroke="#8BA19E" stroke-opacity="0.05"/>
<line x1="1397.33" y1="3717.53" x2="1397.33" y2="4559.75" stroke="#8BA19E" stroke-opacity="0.05"/>
<line x1="-106.18" y1="4048.71" x2="742.097" y2="4048.71" stroke="#1D7066" stroke-opacity="0.07"/>
<line x1="656.535" y1="4048.71" x2="1504.81" y2="4048.71" stroke="#1D7066" stroke-opacity="0.07"/>
<line x1="381.691" y1="3717.53" x2="381.691" y2="4559.75" stroke="#8BA19E" stroke-opacity="0.05"/>
<line x1="1144.41" y1="3717.53" x2="1144.41" y2="4559.75" stroke="#8BA19E" stroke-opacity="0.05"/>
<line x1="-106.18" y1="4299.83" x2="742.097" y2="4299.83" stroke="#1D7066" stroke-opacity="0.07"/>
<line x1="656.535" y1="4299.83" x2="1504.81" y2="4299.83" stroke="#1D7066" stroke-opacity="0.07"/>
<line x1="128.762" y1="3717.53" x2="128.762" y2="4559.75" stroke="#8BA19E" stroke-opacity="0.05"/>
<line x1="891.477" y1="3717.53" x2="891.477" y2="4559.75" stroke="#8BA19E" stroke-opacity="0.05"/>
<line x1="-106.18" y1="3923.14" x2="742.097" y2="3923.14" stroke="#1D7066" stroke-opacity="0.07"/>
<line x1="656.535" y1="3923.14" x2="1504.81" y2="3923.14" stroke="#1D7066" stroke-opacity="0.07"/>
<line x1="508.156" y1="3717.53" x2="508.156" y2="4559.75" stroke="#8BA19E" stroke-opacity="0.05"/>
<line x1="1270.87" y1="3717.53" x2="1270.87" y2="4559.75" stroke="#8BA19E" stroke-opacity="0.05"/>
<line x1="-106.18" y1="4174.27" x2="742.097" y2="4174.27" stroke="#1D7066" stroke-opacity="0.07"/>
<line x1="656.535" y1="4174.27" x2="1504.81" y2="4174.27" stroke="#1D7066" stroke-opacity="0.07"/>
<line x1="255.227" y1="3717.53" x2="255.227" y2="4559.75" stroke="#8BA19E" stroke-opacity="0.05"/>
<line x1="1017.94" y1="3717.53" x2="1017.94" y2="4559.75" stroke="#8BA19E" stroke-opacity="0.05"/>
<line x1="-106.18" y1="4425.39" x2="742.097" y2="4425.39" stroke="#1D7066" stroke-opacity="0.07"/>
<line x1="656.535" y1="4425.39" x2="1504.81" y2="4425.39" stroke="#1D7066" stroke-opacity="0.07"/>
<line x1="2.29688" y1="3717.53" x2="2.29684" y2="4559.75" stroke="#8BA19E" stroke-opacity="0.05"/>
<line x1="765.012" y1="3717.53" x2="765.012" y2="4559.75" stroke="#8BA19E" stroke-opacity="0.05"/>
</g>
<defs>
<clipPath id="clip0_11691_345">
<rect width="1440" height="4559" fill="white" transform="translate(0 0.427734)"/>
</clipPath>
</defs>
</svg>
