<svg width="51" height="51" viewBox="0 0 51 51" fill="none" xmlns="http://www.w3.org/2000/svg">
<path d="M40.8207 24.8285H37.0924C36.998 24.8285 36.9022 24.8257 36.8078 24.8186C36.7304 24.813 36.6895 24.7623 36.6839 24.6876C36.6768 24.6073 36.674 24.5256 36.674 24.4454C36.6825 21.8762 36.6923 19.3084 36.7008 16.7393C36.7008 16.6717 36.7064 16.6041 36.7092 16.5365C36.7656 16.0843 36.7459 15.6322 36.7191 15.1786C36.7149 15.1265 36.7177 15.1998 36.6909 15.1533C36.6782 15.1307 36.6473 15.1406 36.6261 15.1674C36.4796 15.8406 36.3374 16.5139 36.1867 17.1858C35.6514 19.5578 35.1148 21.9297 34.5781 24.3003C34.5598 24.3792 34.5331 24.4566 34.5204 24.5369C34.4739 24.8355 34.4091 24.8285 34.1401 24.8285H30.9371C30.8709 24.8285 30.8033 24.8242 30.7357 24.8172C30.6779 24.8116 30.6342 24.7834 30.6173 24.7256C30.5906 24.6341 30.5624 24.5439 30.5413 24.4524C29.8581 21.4762 29.175 18.5014 28.4919 15.5265C28.4651 15.4125 28.4355 15.2984 28.3905 15.1364C28.3059 15.304 28.3327 15.4237 28.3355 15.5378C28.3538 16.7815 28.3862 18.0253 28.3947 19.2676C28.4074 20.9987 28.4017 22.7284 28.4017 24.4594C28.4017 24.8228 28.3975 24.8271 28.0482 24.8271C26.7509 24.8299 25.4537 24.8271 24.155 24.8271C24.0888 24.8271 24.0198 24.8271 23.9536 24.8186C23.8803 24.8073 23.831 24.7637 23.8268 24.6848C23.8212 24.5904 23.8184 24.4961 23.8184 24.4017C23.8184 19.4817 23.8184 14.5603 23.8184 9.63889C23.8184 9.20788 23.8099 9.2276 24.2508 9.2276H30.6554C31.0174 9.22901 31.0469 9.18253 31.1272 9.60086C31.4639 11.3517 31.8146 13.1011 32.1583 14.8504C32.2667 15.4068 32.371 15.9646 32.478 16.521C32.4879 16.5731 32.5062 16.6252 32.5217 16.6745C32.5245 16.6829 32.5414 16.6886 32.5527 16.69C32.5653 16.6914 32.5865 16.6914 32.5907 16.6844C32.6076 16.6491 32.6273 16.6125 32.6344 16.5731C33.0724 14.2504 33.5076 11.9263 33.9429 9.60368C33.9485 9.57691 33.9499 9.55015 33.9556 9.52339C34.0147 9.23323 34.0147 9.22901 34.3302 9.22901C36.5191 9.2276 38.7079 9.2276 40.8982 9.2276C40.9644 9.2276 41.0334 9.22901 41.0996 9.23464C41.1743 9.24168 41.2264 9.28112 41.232 9.35859C41.2391 9.45296 41.2419 9.54874 41.2419 9.64312V24.4045C41.2419 24.8355 41.2644 24.8271 40.8221 24.8271L40.8207 24.8285Z" fill="white"/>
<path d="M22.6747 19.7678C22.4887 18.379 21.8014 17.3198 20.5675 16.6338C20.4971 16.5944 20.421 16.5634 20.3492 16.5254C20.2971 16.4972 20.2886 16.4254 20.3351 16.393C20.4013 16.3479 20.4731 16.3085 20.5407 16.2648C21.2478 15.8028 21.714 15.1633 21.9521 14.3506C22.1098 13.8097 22.1465 13.2576 22.0817 12.7055C21.9394 11.4674 21.3323 10.5265 20.2337 9.91797C19.8773 9.72078 19.4984 9.57852 19.1054 9.4757C18.435 9.30104 17.7518 9.2292 17.0603 9.23061C14.5601 9.23202 12.0614 9.23061 9.56266 9.23061C9.49505 9.23061 9.42744 9.23061 9.35983 9.23202C9.14151 9.24047 9.12601 9.25456 9.11756 9.46302C9.11334 9.58415 9.11615 9.70529 9.11615 9.82783V24.2202C9.11615 24.3427 9.11475 24.4639 9.11756 24.585C9.12461 24.8033 9.1401 24.8188 9.34715 24.8287C9.41476 24.8315 9.48237 24.8287 9.54998 24.8287H17.2096C17.6955 24.8287 18.1815 24.8047 18.6632 24.7287C19.3745 24.616 20.0604 24.423 20.6915 24.0638C21.6028 23.5441 22.2098 22.7807 22.5028 21.7722C22.693 21.1158 22.7662 20.4439 22.6747 19.7664V19.7678ZM13.8164 13.2703C13.8178 13.0858 13.8502 13.052 14.0263 13.0505C14.7531 13.0477 15.4799 13.0463 16.2081 13.052C16.3264 13.0534 16.449 13.0801 16.5645 13.1125C16.9729 13.2252 17.1941 13.5041 17.2462 13.921C17.2546 13.9872 17.2603 14.0548 17.2617 14.1224C17.2701 14.7957 16.9166 15.1901 16.2447 15.2267C15.8686 15.2479 15.4898 15.2309 15.1137 15.2309V15.2338C14.7629 15.2338 14.4122 15.2366 14.0629 15.2338C13.846 15.2309 13.8178 15.2084 13.8164 15.0098C13.8122 14.4295 13.8122 13.8506 13.8164 13.2717V13.2703ZM17.8307 20.1495C17.7448 20.651 17.449 20.9439 16.9419 20.9961C16.7405 21.0172 16.5377 21.0101 16.3349 21.0116C16.0377 21.0144 15.7405 21.013 15.4433 21.013V21.0101C14.9714 21.0101 14.4981 21.013 14.0263 21.0087C13.8474 21.0087 13.8178 20.9749 13.8164 20.7904C13.8122 20.2087 13.8122 19.6284 13.8164 19.0481C13.8178 18.8692 13.8544 18.8312 14.0319 18.8297C14.5587 18.8255 15.0841 18.8269 15.6109 18.8269C15.9348 18.8269 16.2588 18.8297 16.5828 18.8255C16.7743 18.8227 16.9617 18.8424 17.1448 18.8945C17.4983 18.9945 17.7265 19.2241 17.8082 19.5875C17.849 19.772 17.8631 19.958 17.8307 20.1495Z" fill="white"/>
<path d="M19.8115 38.3014C19.503 39.2888 18.8931 40.0339 17.9987 40.548C17.4409 40.8691 16.8395 41.072 16.2099 41.1762C15.0408 41.372 13.8703 41.372 12.7068 41.1199C12.3364 41.041 11.9758 40.9255 11.6307 40.7691C10.2701 40.155 9.47286 39.1 9.20383 37.6394C9.16439 37.4281 9.1489 37.2112 9.12777 36.9971C9.11932 36.8999 9.17707 36.8478 9.27285 36.8422C9.36722 36.8379 9.46159 36.8365 9.55596 36.8365C10.0292 36.8365 10.5025 36.8365 10.9758 36.8365H12.3533C12.4477 36.8365 12.542 36.8337 12.6364 36.8379C12.8054 36.8464 12.8195 36.8605 12.8561 37.014C12.8843 37.1323 12.904 37.2535 12.9393 37.369C13.0688 37.7887 13.3435 38.0718 13.7661 38.1859C14.3633 38.3479 14.9689 38.3366 15.569 38.1915C15.6718 38.1662 15.7718 38.1155 15.8648 38.0634C16.3113 37.8126 16.2944 37.1056 15.9338 36.8464C15.7774 36.7337 15.6084 36.6548 15.4281 36.5985C15.1436 36.5097 14.852 36.452 14.5577 36.4069C13.9041 36.3055 13.2491 36.2097 12.5984 36.09C12.0913 35.997 11.6138 35.8083 11.1673 35.5435C10.1574 34.9435 9.60244 34.0448 9.44469 32.8898C9.34609 32.1701 9.38835 31.4616 9.59822 30.7644C9.87288 29.8516 10.4335 29.1713 11.2659 28.7121C11.7927 28.422 12.3618 28.2487 12.9519 28.1586C14.0689 27.9881 15.1859 27.9924 16.2972 28.222C16.7212 28.3107 17.131 28.4459 17.5198 28.6403C18.379 29.0685 18.9875 29.7291 19.341 30.6235C19.5058 31.0404 19.603 31.4743 19.6565 31.9194C19.6917 32.2025 19.6664 32.225 19.3945 32.2349C19.3269 32.2363 19.2593 32.2363 19.1917 32.2363C18.3396 32.2363 17.4888 32.2363 16.6381 32.2349C16.5564 32.2349 16.4761 32.2377 16.3944 32.2335C16.2282 32.2236 16.2155 32.2137 16.169 32.0602C16.1465 31.9827 16.1268 31.9039 16.1014 31.8264C15.9944 31.4954 15.7732 31.27 15.4493 31.1545C15.3112 31.1052 15.1633 31.0742 15.0168 31.0545C14.707 31.0123 14.3971 31.0221 14.0872 31.0573C13.883 31.0799 13.69 31.1362 13.5097 31.2362C13.0463 31.4926 13.0632 32.163 13.4703 32.4222C13.6914 32.5645 13.9365 32.6363 14.1914 32.6757C14.7379 32.7617 15.2859 32.8391 15.8338 32.9236C16.462 33.0222 17.0789 33.1659 17.6719 33.4011C17.924 33.4997 18.1677 33.6166 18.4001 33.7547C19.2945 34.2857 19.8256 35.0674 19.9664 36.0942C20.0692 36.8365 20.0368 37.5788 19.8115 38.3014Z" fill="white"/>
<path d="M31.9115 35.0523C31.5496 33.4593 30.6058 32.3803 29.048 31.8733C27.9958 31.531 26.9211 31.5099 25.8492 31.7733C24.1844 32.1832 23.1082 33.2241 22.6448 34.8763C22.3448 35.9397 22.3533 37.013 22.6519 38.0764C23.066 39.5427 24.0083 40.5033 25.4577 40.9639C26.3774 41.2569 27.3169 41.2752 28.2635 41.1555C28.7888 41.0893 29.2945 40.9414 29.772 40.709C30.6706 40.2709 31.3256 39.6019 31.6876 38.6596C31.7214 38.5722 31.751 38.4821 31.7735 38.3905C31.7932 38.3074 31.7439 38.268 31.6651 38.261C31.6383 38.2581 31.6115 38.2553 31.5848 38.2553C30.6523 38.2553 29.7213 38.2553 28.7888 38.2539C28.6621 38.2539 28.5536 38.2793 28.4621 38.3793C28.3226 38.5328 28.1381 38.6201 27.9395 38.6737C27.5254 38.7849 27.1085 38.7779 26.6986 38.6596C26.2549 38.5314 25.9394 38.2567 25.7901 37.8116C25.7563 37.7102 25.7408 37.6018 25.7267 37.4947C25.7154 37.4173 25.7563 37.3637 25.8366 37.3581C25.9436 37.3496 26.0521 37.3482 26.1605 37.3482C27.0521 37.3468 27.9423 37.3468 28.8339 37.3468H31.4679C31.5749 37.3468 31.6834 37.3496 31.7918 37.3426C31.9453 37.3327 31.9749 37.3018 31.9932 37.1468C32.0721 36.4454 32.0679 35.7439 31.9115 35.0523ZM28.5339 35.4171C28.3592 35.4228 28.1846 35.4228 28.0085 35.4242H27.2014V35.4185C26.7704 35.4185 26.3394 35.4214 25.9084 35.4185C25.8056 35.4185 25.7577 35.358 25.776 35.265C25.9225 34.5495 26.2859 34.1283 27.0859 34.0706C27.3296 34.0523 27.5705 34.0804 27.8043 34.1523C28.3564 34.3213 28.6142 34.7847 28.6691 35.2608C28.6804 35.358 28.6339 35.4143 28.5339 35.4185V35.4171Z" fill="white"/>
<path d="M41.2348 34.1743C41.2264 34.3292 41.1954 34.3616 41.0405 34.3701C40.9461 34.3743 40.8517 34.3729 40.7559 34.3729C40.4461 34.3729 40.1348 34.3715 39.8249 34.3729C39.4573 34.3757 39.4559 34.3771 39.4544 34.7616C39.453 35.6406 39.4544 36.5195 39.4544 37.3984C39.4544 37.5463 39.453 37.6942 39.5023 37.8393C39.5685 38.0337 39.6911 38.1576 39.8925 38.214C40.0911 38.2689 40.2939 38.2647 40.4954 38.2661C41.1545 38.2731 41.0672 38.1914 41.0714 38.8548C41.0771 39.4225 41.0729 39.9901 41.0729 40.5577C41.0729 40.6521 41.0743 40.7479 41.0686 40.8423C41.0602 40.9733 41.0278 41.0127 40.9038 41.0282C40.7151 41.0493 40.5263 41.0662 40.3376 41.0789C39.5671 41.1352 38.7981 41.1169 38.0389 40.9549C37.8417 40.9127 37.6459 40.8549 37.4586 40.7817C36.6726 40.4817 36.2148 39.9028 36.0529 39.0844C35.9923 38.7788 35.9655 38.4689 35.9683 38.1576C35.9697 37.6294 35.9683 37.1026 35.9683 36.5758V34.8321C35.9669 34.7236 35.9655 34.6152 35.9599 34.5081C35.9543 34.4292 35.905 34.387 35.8303 34.3813C35.7486 34.3743 35.6683 34.3743 35.5866 34.3729C35.3838 34.3715 35.181 34.3757 34.9796 34.3715C34.7556 34.3658 34.7359 34.3433 34.726 34.1067C34.7246 34.0799 34.7246 34.0517 34.7246 34.025V32.1601C34.7246 32.1192 34.7246 32.0784 34.7274 32.0376C34.7387 31.8573 34.7683 31.8206 34.9401 31.815C35.1429 31.8094 35.3458 31.8122 35.5486 31.8122C35.9923 31.8122 35.9683 31.8192 35.9683 31.3896V29.4839C35.9683 29.3895 35.9655 29.2937 35.9697 29.1994C35.9782 29.0247 36.0036 29.0008 36.1923 28.9895C36.2458 28.9853 36.3008 28.9867 36.3543 28.9867H39.0699C39.1375 28.9867 39.2051 28.9867 39.2728 28.9909C39.4037 29.0022 39.4432 29.0388 39.4488 29.1613C39.4545 29.2698 39.4544 29.3782 39.4544 29.4867C39.4544 30.1079 39.453 30.7304 39.4544 31.3516C39.4544 31.4601 39.4573 31.5685 39.4629 31.6756C39.4671 31.7558 39.5207 31.7967 39.5939 31.8023C39.7009 31.8108 39.8094 31.8108 39.9179 31.8122C40.2686 31.8122 40.6207 31.8094 40.9714 31.8136C41.2095 31.8178 41.2292 31.8418 41.2376 32.0657C41.2391 32.1333 41.2376 32.2009 41.2376 32.2685V33.9306C41.2376 34.0123 41.2405 34.0926 41.2348 34.1743Z" fill="white"/>
<path d="M48.52 1.92786H1.83008V48.6178H48.52V1.92786Z" stroke="white" stroke-width="3.52132" stroke-miterlimit="10"/>
</svg>
