<svg width="51" height="51" viewBox="0 0 51 51" fill="none" xmlns="http://www.w3.org/2000/svg">
<path d="M40.7953 25.3108H37.067C36.9726 25.3108 36.8768 25.308 36.7824 25.3009C36.705 25.2953 36.6641 25.2446 36.6585 25.1699C36.6515 25.0896 36.6486 25.0079 36.6486 24.9277C36.6571 22.3585 36.6669 19.7907 36.6754 17.2216C36.6754 17.154 36.681 17.0864 36.6838 17.0188C36.7402 16.5666 36.7205 16.1145 36.6937 15.6609C36.6895 15.6088 36.6923 15.6821 36.6655 15.6356C36.6529 15.613 36.6219 15.6229 36.6007 15.6497C36.4543 16.3229 36.312 16.9962 36.1613 17.6681C35.626 20.0401 35.0894 22.412 34.5527 24.7826C34.5344 24.8615 34.5077 24.9389 34.495 25.0192C34.4485 25.3178 34.3837 25.3108 34.1147 25.3108H30.9117C30.8455 25.3108 30.7779 25.3065 30.7103 25.2995C30.6525 25.2939 30.6089 25.2657 30.592 25.2079C30.5652 25.1164 30.537 25.0262 30.5159 24.9347C29.8328 21.9585 29.1496 18.9837 28.4665 16.0088C28.4397 15.8948 28.4101 15.7807 28.3651 15.6187C28.2806 15.7863 28.3073 15.906 28.3101 16.0201C28.3284 17.2638 28.3608 18.5076 28.3693 19.7499C28.382 21.481 28.3763 23.2107 28.3763 24.9417C28.3763 25.3051 28.3721 25.3094 28.0228 25.3094C26.7255 25.3122 25.4283 25.3094 24.1296 25.3094C24.0634 25.3094 23.9944 25.3094 23.9282 25.3009C23.855 25.2896 23.8057 25.246 23.8014 25.1671C23.7958 25.0727 23.793 24.9784 23.793 24.884C23.793 19.964 23.793 15.0426 23.793 10.1212C23.793 9.69018 23.7845 9.7099 24.2254 9.7099H30.63C30.992 9.71131 31.0216 9.66483 31.1018 10.0832C31.4385 11.834 31.7892 13.5834 32.1329 15.3327C32.2413 15.8891 32.3456 16.4469 32.4526 17.0033C32.4625 17.0554 32.4808 17.1075 32.4963 17.1568C32.4991 17.1652 32.516 17.1709 32.5273 17.1723C32.5399 17.1737 32.5611 17.1737 32.5653 17.1667C32.5822 17.1314 32.6019 17.0948 32.609 17.0554C33.047 14.7327 33.4823 12.4086 33.9175 10.086C33.9231 10.0592 33.9245 10.0325 33.9302 10.0057C33.9893 9.71553 33.9893 9.71131 34.3048 9.71131C36.4937 9.7099 38.6825 9.7099 40.8728 9.7099C40.939 9.7099 41.008 9.71131 41.0742 9.71694C41.1489 9.72398 41.201 9.76342 41.2066 9.84089C41.2137 9.93526 41.2165 10.031 41.2165 10.1254V24.8868C41.2165 25.3178 41.239 25.3094 40.7967 25.3094L40.7953 25.3108Z" fill="#1D7066"/>
<path d="M22.6493 20.2501C22.4633 18.8613 21.776 17.8021 20.5421 17.1161C20.4717 17.0767 20.3956 17.0457 20.3238 17.0077C20.2717 16.9795 20.2632 16.9077 20.3097 16.8753C20.3759 16.8302 20.4477 16.7908 20.5153 16.7471C21.2224 16.2851 21.6887 15.6456 21.9267 14.8329C22.0844 14.292 22.1211 13.7399 22.0563 13.1878C21.914 11.9497 21.3069 11.0088 20.2083 10.4003C19.8519 10.2031 19.473 10.0608 19.0801 9.958C18.4096 9.78334 17.7265 9.7115 17.0349 9.71291C14.5347 9.71432 12.036 9.71291 9.53727 9.71291C9.46966 9.71291 9.40205 9.71291 9.33444 9.71432C9.11612 9.72277 9.10062 9.73686 9.09217 9.94532C9.08795 10.0665 9.09076 10.1876 9.09076 10.3101V24.7025C9.09076 24.825 9.08936 24.9462 9.09217 25.0673C9.09921 25.2856 9.11471 25.3011 9.32176 25.311C9.38937 25.3138 9.45698 25.311 9.52459 25.311H17.1842C17.6701 25.311 18.1561 25.287 18.6378 25.211C19.3491 25.0983 20.035 24.9053 20.6661 24.5461C21.5774 24.0264 22.1845 23.263 22.4774 22.2545C22.6676 21.5981 22.7408 20.9262 22.6493 20.2487V20.2501ZM13.791 13.7526C13.7924 13.5681 13.8248 13.5343 14.0009 13.5328C14.7277 13.53 15.4545 13.5286 16.1827 13.5343C16.301 13.5357 16.4236 13.5624 16.5391 13.5948C16.9475 13.7075 17.1687 13.9864 17.2208 14.4033C17.2292 14.4695 17.2349 14.5371 17.2363 14.6047C17.2447 15.278 16.8912 15.6724 16.2193 15.709C15.8433 15.7302 15.4644 15.7132 15.0883 15.7132V15.7161C14.7376 15.7161 14.3868 15.7189 14.0375 15.7161C13.8206 15.7132 13.7924 15.6907 13.791 15.4921C13.7868 14.9118 13.7868 14.3329 13.791 13.754V13.7526ZM17.8053 20.6318C17.7194 21.1333 17.4236 21.4262 16.9166 21.4784C16.7151 21.4995 16.5123 21.4924 16.3095 21.4939C16.0123 21.4967 15.7151 21.4953 15.4179 21.4953V21.4924C14.946 21.4924 14.4728 21.4953 14.0009 21.491C13.822 21.491 13.7924 21.4572 13.791 21.2727C13.7868 20.691 13.7868 20.1107 13.791 19.5304C13.7924 19.3515 13.8291 19.3134 14.0065 19.312C14.5333 19.3078 15.0587 19.3092 15.5855 19.3092C15.9095 19.3092 16.2334 19.312 16.5574 19.3078C16.7489 19.305 16.9363 19.3247 17.1194 19.3768C17.4729 19.4768 17.7011 19.7064 17.7828 20.0698C17.8236 20.2543 17.8377 20.4403 17.8053 20.6318Z" fill="#1D7066"/>
<path d="M19.788 38.7837C19.4796 39.7711 18.8697 40.5162 17.9753 41.0303C17.4175 41.3514 16.816 41.5543 16.1864 41.6585C15.0173 41.8543 13.8469 41.8543 12.6834 41.6022C12.313 41.5233 11.9524 41.4078 11.6073 41.2514C10.2466 40.6373 9.44942 39.5823 9.18039 38.1217C9.14095 37.9104 9.12546 37.6935 9.10433 37.4794C9.09588 37.3822 9.15363 37.3301 9.24941 37.3245C9.34378 37.3202 9.43815 37.3188 9.53252 37.3188C10.0058 37.3188 10.4791 37.3188 10.9523 37.3188H12.3299C12.4242 37.3188 12.5186 37.316 12.613 37.3202C12.782 37.3287 12.7961 37.3428 12.8327 37.4963C12.8609 37.6146 12.8806 37.7358 12.9158 37.8513C13.0454 38.271 13.3201 38.5541 13.7426 38.6682C14.3398 38.8302 14.9455 38.8189 15.5455 38.6738C15.6484 38.6485 15.7484 38.5978 15.8413 38.5457C16.2878 38.2949 16.2709 37.5879 15.9103 37.3287C15.754 37.216 15.585 37.1371 15.4047 37.0808C15.1202 36.992 14.8286 36.9343 14.5342 36.8892C13.8807 36.7878 13.2257 36.692 12.5749 36.5723C12.0679 36.4793 11.5904 36.2906 11.1439 36.0258C10.134 35.4258 9.57901 34.5271 9.42125 33.3721C9.32265 32.6524 9.36491 31.9439 9.57478 31.2467C9.84944 30.3339 10.41 29.6536 11.2425 29.1944C11.7693 28.9043 12.3383 28.731 12.9285 28.6409C14.0455 28.4704 15.1624 28.4747 16.2737 28.7043C16.6977 28.793 17.1076 28.9282 17.4964 29.1226C18.3556 29.5508 18.964 30.2114 19.3176 31.1058C19.4824 31.5227 19.5796 31.9566 19.6331 32.4016C19.6683 32.6848 19.643 32.7073 19.3711 32.7172C19.3035 32.7186 19.2359 32.7186 19.1683 32.7186C18.3161 32.7186 17.4654 32.7186 16.6146 32.7172C16.5329 32.7172 16.4526 32.72 16.3709 32.7158C16.2047 32.7059 16.1921 32.696 16.1456 32.5425C16.123 32.465 16.1033 32.3862 16.078 32.3087C15.9709 31.9777 15.7498 31.7523 15.4258 31.6368C15.2878 31.5875 15.1399 31.5565 14.9934 31.5368C14.6835 31.4946 14.3736 31.5044 14.0638 31.5396C13.8595 31.5622 13.6666 31.6185 13.4863 31.7185C13.0229 31.9749 13.0398 32.6453 13.4468 32.9045C13.668 33.0468 13.9131 33.1186 14.168 33.158C14.7145 33.244 15.2624 33.3214 15.8103 33.4059C16.4385 33.5045 17.0555 33.6482 17.6485 33.8834C17.9006 33.982 18.1443 34.0989 18.3767 34.237C19.2711 34.768 19.8021 35.5497 19.943 36.5765C20.0458 37.3188 20.0134 38.0611 19.788 38.7837Z" fill="#1D7066"/>
<path d="M31.8862 35.5346C31.5242 33.9416 30.5804 32.8626 29.0226 32.3556C27.9704 32.0133 26.8957 31.9922 25.8238 32.2556C24.159 32.6655 23.0828 33.7064 22.6194 35.3586C22.3194 36.422 22.3279 37.4953 22.6265 38.5587C23.0406 40.025 23.9829 40.9856 25.4323 41.4462C26.352 41.7392 27.2915 41.7575 28.2381 41.6378C28.7634 41.5716 29.2691 41.4237 29.7466 41.1913C30.6452 40.7532 31.3002 40.0842 31.6622 39.1419C31.696 39.0545 31.7256 38.9644 31.7481 38.8728C31.7678 38.7897 31.7185 38.7503 31.6397 38.7433C31.6129 38.7404 31.5861 38.7376 31.5594 38.7376C30.6269 38.7376 29.6959 38.7376 28.7634 38.7362C28.6367 38.7362 28.5282 38.7616 28.4367 38.8616C28.2972 39.0151 28.1127 39.1024 27.9141 39.156C27.5 39.2672 27.0831 39.2602 26.6732 39.1419C26.2295 39.0137 25.914 38.739 25.7647 38.2939C25.7309 38.1925 25.7154 38.0841 25.7013 37.977C25.69 37.8995 25.7309 37.846 25.8112 37.8404C25.9182 37.8319 26.0267 37.8305 26.1351 37.8305C27.0267 37.8291 27.9169 37.8291 28.8085 37.8291H31.4425C31.5495 37.8291 31.658 37.8319 31.7664 37.8249C31.92 37.815 31.9495 37.7841 31.9679 37.6291C32.0467 36.9277 32.0425 36.2262 31.8862 35.5346ZM28.5085 35.8994C28.3338 35.9051 28.1592 35.9051 27.9831 35.9065H27.176V35.9008C26.745 35.9008 26.314 35.9037 25.883 35.9008C25.7802 35.9008 25.7323 35.8403 25.7506 35.7473C25.8971 35.0318 26.2605 34.6106 27.0605 34.5529C27.3042 34.5346 27.5451 34.5627 27.7789 34.6346C28.331 34.8036 28.5888 35.267 28.6437 35.7431C28.655 35.8403 28.6085 35.8966 28.5085 35.9008V35.8994Z" fill="#1D7066"/>
<path d="M41.2094 34.6566C41.201 34.8115 41.17 34.8439 41.0151 34.8524C40.9207 34.8566 40.8263 34.8552 40.7305 34.8552C40.4207 34.8552 40.1094 34.8538 39.7995 34.8552C39.4319 34.858 39.4305 34.8594 39.4291 35.2439C39.4277 36.1229 39.4291 37.0018 39.4291 37.8807C39.4291 38.0286 39.4277 38.1765 39.477 38.3216C39.5432 38.516 39.6657 38.6399 39.8671 38.6963C40.0657 38.7512 40.2685 38.747 40.47 38.7484C41.1292 38.7554 41.0418 38.6737 41.0461 39.3371C41.0517 39.9048 41.0475 40.4724 41.0475 41.04C41.0475 41.1344 41.0489 41.2302 41.0432 41.3246C41.0348 41.4556 41.0024 41.495 40.8784 41.5105C40.6897 41.5316 40.501 41.5485 40.3122 41.5612C39.5417 41.6175 38.7727 41.5992 38.0135 41.4372C37.8163 41.395 37.6205 41.3372 37.4332 41.264C36.6472 40.964 36.1894 40.3851 36.0275 39.5667C35.9669 39.2611 35.9401 38.9512 35.943 38.6399C35.9444 38.1117 35.943 37.5849 35.943 37.0581V35.3144C35.9415 35.2059 35.9401 35.0975 35.9345 34.9904C35.9289 34.9115 35.8796 34.8693 35.8049 34.8636C35.7232 34.8566 35.6429 34.8566 35.5612 34.8552C35.3584 34.8538 35.1556 34.858 34.9542 34.8538C34.7302 34.8481 34.7105 34.8256 34.7006 34.589C34.6992 34.5622 34.6992 34.534 34.6992 34.5073V32.6424C34.6992 32.6015 34.6992 32.5607 34.702 32.5199C34.7133 32.3396 34.7429 32.3029 34.9147 32.2973C35.1176 32.2917 35.3204 32.2945 35.5232 32.2945C35.9669 32.2945 35.943 32.3015 35.943 31.8719V29.9662C35.943 29.8718 35.9401 29.776 35.9444 29.6817C35.9528 29.507 35.9782 29.4831 36.1669 29.4718C36.2204 29.4676 36.2754 29.469 36.3289 29.469H39.0445C39.1121 29.469 39.1798 29.469 39.2474 29.4732C39.3784 29.4845 39.4178 29.5211 39.4234 29.6436C39.4291 29.7521 39.4291 29.8605 39.4291 29.969C39.4291 30.5902 39.4277 31.2127 39.4291 31.8339C39.4291 31.9424 39.4319 32.0508 39.4375 32.1579C39.4417 32.2381 39.4953 32.279 39.5685 32.2846C39.6756 32.2931 39.784 32.2931 39.8925 32.2945C40.2432 32.2945 40.5953 32.2917 40.946 32.2959C41.1841 32.3001 41.2038 32.3241 41.2123 32.548C41.2137 32.6156 41.2123 32.6832 41.2123 32.7508V34.4129C41.2123 34.4946 41.2151 34.5749 41.2094 34.6566Z" fill="#1D7066"/>
<path d="M48.4966 2.41016H1.80664V49.1001H48.4966V2.41016Z" stroke="#1D7066" stroke-width="3.52132" stroke-miterlimit="10"/>
</svg>
