<svg width="952" height="470" viewBox="0 0 952 470" fill="none" xmlns="http://www.w3.org/2000/svg">
<path d="M820.716 389.464V359.362H854.961C870.84 422.005 840.347 434.758 823.116 433.305C823.043 427.852 822.941 416.989 823.116 417.164C839.343 416.815 839.91 398.552 838.165 389.464H820.716Z" fill="black" fill-opacity="0.05"/>
<path d="M769.062 388.646V358.544H803.306C819.185 421.186 788.693 433.94 771.461 432.487C771.389 427.034 771.287 416.171 771.461 416.346C787.689 415.997 788.256 397.734 786.511 388.646H769.062Z" fill="black" fill-opacity="0.05"/>
<path d="M201.567 296.581V326.683H167.322C151.444 264.04 181.936 251.287 199.168 252.74C199.24 258.193 199.342 269.055 199.168 268.881C182.94 269.23 182.373 287.493 184.118 296.581H201.567Z" fill="black" fill-opacity="0.05"/>
<path d="M253.222 297.399V327.501H218.977C203.098 264.859 233.591 252.105 250.822 253.558C250.895 259.011 250.996 269.874 250.822 269.699C234.594 270.048 234.027 288.311 235.772 297.399H253.222Z" fill="black" fill-opacity="0.05"/>
<rect x="0.8125" y="113.385" width="65.8005" height="65.8005" rx="32.9003" fill="#1D7066"/>
<rect x="882.752" y="31.6621" width="68.9844" height="68.9844" rx="34.4922" fill="#E34A6F"/>
<circle cx="930.51" cy="461.309" r="7.97322" fill="#E5B269"/>
<circle cx="775.406" cy="114.974" r="3.71455" fill="#4383FB"/>
<circle cx="127.036" cy="462.442" r="5.34847" fill="#FF0618"/>
<circle cx="253.22" cy="154.75" r="6.85699" fill="#FF7C8C"/>
<circle cx="18.0926" cy="3.53982" r="3.42849" fill="#FC40FD"/>
</svg>
